<svg width="18" height="18" viewBox="0 0 18 18" fill="none" xmlns="http://www.w3.org/2000/svg">
<path d="M9.00033 4.83333C6.70033 4.83333 4.83366 6.7 4.83366 9C4.83366 11.3 6.70033 13.1667 9.00033 13.1667C11.3003 13.1667 13.167 11.3 13.167 9C13.167 6.7 11.3003 4.83333 9.00033 4.83333ZM9.00033 0.666668C4.40033 0.666668 0.666992 4.4 0.666992 9C0.666992 13.6 4.40033 17.3333 9.00033 17.3333C13.6003 17.3333 17.3337 13.6 17.3337 9C17.3337 4.4 13.6003 0.666668 9.00033 0.666668ZM9.00033 15.6667C5.31699 15.6667 2.33366 12.6833 2.33366 9C2.33366 5.31667 5.31699 2.33333 9.00033 2.33333C12.6837 2.33333 15.667 5.31667 15.667 9C15.667 12.6833 12.6837 15.6667 9.00033 15.6667Z" fill="#3A3541" fill-opacity="0.87"/>
</svg>
